<svg xmlns="http://www.w3.org/2000/svg" width="36" height="36" viewBox="0 0 36 36">
  <g id="Group_3217" data-name="Group 3217" transform="translate(-336 -799)">
    <rect id="Rectangle_297" data-name="Rectangle 297" width="36" height="36" rx="9" transform="translate(336 799)" fill="#fff"/>
    <g id="shopping_cart_black_24dp" transform="translate(342 805)">
      <path id="Path_15" data-name="Path 15" d="M0,0H24V24H0Z" fill="none"/>
      <path id="Path_16" data-name="Path 16" d="M7,18a2,2,0,1,0,2,2A2,2,0,0,0,7,18ZM1,2V4H3l3.6,7.59L5.25,14.04A1.933,1.933,0,0,0,5,15a2.006,2.006,0,0,0,2,2H19V15H7.42a.248.248,0,0,1-.25-.25l.03-.12L8.1,13h7.45a1.991,1.991,0,0,0,1.75-1.03l3.58-6.49A.977.977,0,0,0,21,5a1,1,0,0,0-1-1H5.21L4.27,2H1ZM17,18a2,2,0,1,0,2,2A2,2,0,0,0,17,18Z" fill="#23d160"/>
    </g>
  </g>
</svg>
